# xmcd
#
# Track frame offsets: 
#        150
#        22302
#        42580
#        62324
#        78528
#        101207
#        118054
#        138822
#
# Disc length: 2173 seconds
#
# Revision: 0
# Processed by: cddbd v1.5.2PL0 Copyright (c) Steve Scherf et al.
# Submitted via: ExactAudioCopy v0.99pb4
#
DISCID=6d087b08
DTITLE=Al Johnson - Peaceful
DYEAR=1978
DGENRE=Soul
TTITLE0=I've Got My Second Wind
TTITLE1=Come Check Out This Love
TTITLE2=Peaceful
TTITLE3=It's Not Too Late (To Start Again)
TTITLE4=I'll Do Anything For You
TTITLE5=Since You Walked Out Of My Life
TTITLE6=Let Me Love You (Like You Want To Be Loved)
TTITLE7=Let's Go Home Together
EXTD=
EXTT0=
EXTT1=
EXTT2=
EXTT3=
EXTT4=
EXTT5=
EXTT6=
EXTT7=
PLAYORDER=
